<svg width="80" height="143" viewBox="0 0 80 143" fill="none" xmlns="http://www.w3.org/2000/svg">
  <path
    d="M80 103C80 97.0275 78.6626 91.1309 76.0859 85.7428C73.5092 80.3548 69.7586 75.6121 65.1095 71.863C60.4604 68.1138 55.0307 65.4534 49.219 64.0769C43.4073 62.7004 37.3612 62.6428 31.5243 63.9083L34.5323 77.7817C38.2977 76.9653 42.1981 77.0025 45.9472 77.8905C49.6964 78.7785 53.1991 80.4947 56.1983 82.9133C59.1974 85.3319 61.617 88.3914 63.2792 91.8673C64.9414 95.3432 65.8042 99.1471 65.8042 103H80Z"
    fill="#228BE6" />
  <path
    d="M50.6203 64.4357C42.1803 62.1113 33.2109 62.62 25.0878 65.8836C16.9646 69.1473 10.1365 74.9856 5.65065 82.5031L17.841 89.7773C20.7349 84.9277 25.1398 81.1614 30.38 79.056C35.6203 76.9506 41.4065 76.6225 46.8512 78.1219L50.6203 64.4357Z"
    fill="#12B886" />
  <path
    d="M5.59593 82.5951C1.13021 90.1246 -0.742089 98.9112 0.266209 107.607C1.27451 116.303 5.10773 124.428 11.1779 130.736L21.4067 120.893C17.4908 116.823 15.018 111.582 14.3675 105.972C13.717 100.362 14.9249 94.694 17.8057 89.8367L5.59593 82.5951Z"
    fill="#F59F00" />
  <path
    d="M4.77738 121.957C7.84759 127.662 12.2574 132.535 17.6276 136.158C22.9978 139.782 29.1678 142.047 35.6068 142.758C42.0459 143.47 48.5615 142.606 54.5932 140.243C60.625 137.879 65.9924 134.086 70.234 129.19L59.5041 119.895C56.7678 123.054 53.3053 125.501 49.4142 127.026C45.523 128.55 41.3198 129.107 37.1659 128.648C33.0121 128.189 29.0318 126.728 25.5675 124.391C22.1031 122.053 19.2583 118.909 17.2777 115.229L4.77738 121.957Z"
    fill="#F59F00" />
  <path
    d="M68.2843 131.284C73.2413 126.327 76.8085 120.155 78.6285 113.385C80.4485 106.615 80.4573 99.4853 78.654 92.7109L64.9359 96.3624C66.0992 100.733 66.0935 105.332 64.9195 109.699C63.7454 114.066 61.4441 118.049 58.2463 121.246L68.2843 131.284Z"
    fill="#FA5252" />
  <rect y="16" width="10" height="40" fill="#FA5252" />
  <rect x="32" y="26" width="10" height="30" fill="#12B886" />
  <rect x="48" y="39" width="10" height="17" fill="#FAB005" />
  <rect x="64" y="10" width="10" height="46" fill="#AF52DE" />
  <rect x="16" width="10" height="56" fill="#228BE6" />
</svg>
